<?xml version="1.0" encoding="UTF-8"?>
<!-- Generator: Adobe Illustrator 22.0.0, SVG Export Plug-In . SVG Version: 6.00 Build 0)  -->
<svg version="1.1" id="Слой_1" xmlns="http://www.w3.org/2000/svg" xmlns:xlink="http://www.w3.org/1999/xlink" x="0px" y="0px" viewBox="0 0 204 45.1" style="enable-background:new 0 0 204 45.1;" xml:space="preserve">
<style type="text/css">
	.st0{fill:#010202;}
</style>
<g>
	<path class="st0" d="M68.8,11.9c0,0.6-0.1,1.2-0.4,1.7c-0.3,0.5-0.6,1-1,1.4s-0.9,0.7-1.5,0.9c-0.6,0.2-1.2,0.3-1.9,0.3h-2.7v5.1   h-3.1V7.4h5.7c0.7,0,1.4,0.1,2,0.3C66.5,8,67,8.2,67.4,8.6c0.4,0.4,0.8,0.9,1,1.4C68.6,10.6,68.8,11.2,68.8,11.9z M65.6,11.9   c0-0.6-0.2-1-0.5-1.3c-0.3-0.3-0.8-0.4-1.4-0.4h-2.5v3.3h2.6c0.5,0,0.9-0.2,1.3-0.5C65.5,12.8,65.6,12.4,65.6,11.9z"/>
	<path class="st0" d="M72.6,17.2c0.1,0.6,0.2,1.1,0.5,1.3c0.3,0.3,0.7,0.4,1.1,0.4c0.3,0,0.6-0.1,1-0.2s0.8-0.4,1.2-0.7l1.8,2   c-0.6,0.6-1.3,1-2,1.2c-0.7,0.2-1.4,0.3-2,0.3c-0.5,0-1.1-0.1-1.6-0.2s-1-0.4-1.5-0.8s-0.8-0.9-1-1.5c-0.3-0.6-0.4-1.5-0.4-2.5   c0-0.9,0.1-1.7,0.4-2.4c0.3-0.6,0.6-1.2,1-1.6c0.4-0.4,0.9-0.7,1.4-0.9c0.5-0.2,1.1-0.3,1.7-0.3c0.8,0,1.5,0.1,2,0.4s1,0.6,1.4,1   c0.4,0.4,0.6,1,0.8,1.6c0.2,0.6,0.3,1.3,0.3,2.1v0.7H72.6z M75.6,15.3c-0.1-0.5-0.2-0.8-0.5-1c-0.3-0.2-0.6-0.4-1-0.4   c-0.4,0-0.7,0.1-1,0.4c-0.3,0.3-0.5,0.6-0.5,1H75.6z"/>
	<path class="st0" d="M85.9,16.6l1.3-2.5l1.5-2.7h2.6v9.9h-2.8v-4.4h0l-0.8,1.7l-0.8,1.5H85l-0.8-1.5l-0.8-1.7h0v4.4h-2.8v-9.9h2.5   l1.5,2.7L85.9,16.6L85.9,16.6z"/>
	<path class="st0" d="M97.6,11.3c0.8,0,1.5,0.1,2.1,0.4c0.6,0.3,1.1,0.7,1.5,1.2c0.3,0.4,0.5,0.9,0.6,1.5c0.1,0.6,0.2,1.2,0.2,2   c0,0.7-0.1,1.2-0.2,1.8c-0.1,0.5-0.3,1-0.6,1.4c-0.4,0.7-1,1.2-1.7,1.5s-1.4,0.5-2.2,0.5c-0.8,0-1.5-0.1-2.1-0.4s-1.1-0.7-1.5-1.2   c-0.3-0.4-0.5-1-0.7-1.5c-0.1-0.6-0.2-1.3-0.2-2c0-0.5,0.1-1,0.1-1.5s0.2-0.9,0.4-1.3c0.3-0.7,0.9-1.3,1.6-1.7S96.7,11.3,97.6,11.3   z M97.5,13.9c-0.3,0-0.5,0.1-0.8,0.2s-0.4,0.4-0.5,0.6C96.1,15,96,15.2,96,15.5s-0.1,0.6-0.1,0.9c0,0.3,0,0.7,0.1,0.9   s0.1,0.5,0.2,0.7c0.1,0.3,0.3,0.5,0.5,0.6c0.2,0.1,0.5,0.2,0.8,0.2c0.3,0,0.6-0.1,0.9-0.3s0.4-0.5,0.5-0.8c0-0.1,0.1-0.3,0.1-0.6   s0.1-0.5,0.1-0.8c0-0.4,0-0.7-0.1-1c-0.1-0.3-0.1-0.5-0.2-0.7c-0.1-0.3-0.3-0.5-0.5-0.6C98,14,97.8,13.9,97.5,13.9z"/>
	<path class="st0" d="M109.8,21.4v-3.9h-3.3v3.9h-2.8v-9.9h2.8v3.8h3.3v-3.8h2.8v9.9H109.8z"/>
	<path class="st0" d="M119.7,13.9v7.5h-2.9v-7.5h-2.9v-2.4h8.7v2.4H119.7z"/>
	<path class="st0" d="M134.5,11.8c0.8,0,1.4,0.1,1.8,0.4c0.4,0.2,0.8,0.6,1.1,1c0.3,0.4,0.5,0.9,0.7,1.4c0.1,0.5,0.2,1.1,0.2,1.7   c0,1.5-0.3,2.7-0.9,3.5c-0.4,0.5-0.9,0.9-1.5,1.2s-1.4,0.4-2.2,0.4c-0.5,0-0.9,0-1.2-0.1c-0.3-0.1-0.6-0.1-0.9-0.2   c-0.3-0.1-0.5-0.2-0.7-0.3c-0.2-0.1-0.3-0.3-0.5-0.4c-0.4-0.5-0.7-1.1-0.9-1.9s-0.3-1.7-0.3-2.7c0-0.9,0.1-1.7,0.1-2.3   c0.1-0.6,0.1-1,0.2-1.2c0.2-1.1,0.6-2,1.3-2.7c0.6-0.7,1.5-1.3,2.8-1.8c0.4-0.1,0.9-0.3,1.4-0.5c0.6-0.2,1.2-0.4,1.9-0.6l0.8,2.2   c-0.6,0.2-1.1,0.4-1.5,0.5c-0.4,0.1-0.7,0.2-0.9,0.3c-0.6,0.2-1.1,0.4-1.5,0.6c-0.4,0.2-0.7,0.4-0.9,0.6s-0.4,0.5-0.5,0.7   c-0.1,0.3-0.2,0.6-0.2,1.1c0,0,0,0,0,0c0.3-0.3,0.7-0.6,1.1-0.7C133.9,11.9,134.2,11.8,134.5,11.8z M133.8,14.4   c-0.5,0-0.9,0.2-1.2,0.6c-0.1,0.2-0.2,0.5-0.3,0.7c-0.1,0.3-0.1,0.6-0.1,0.9c0,0.4,0,0.7,0.1,1c0.1,0.3,0.2,0.6,0.4,0.8   c0.3,0.3,0.6,0.5,1.1,0.5c0.3,0,0.5,0,0.7-0.2c0.2-0.1,0.4-0.3,0.5-0.5c0.1-0.2,0.2-0.4,0.3-0.7c0.1-0.3,0.1-0.6,0.1-0.9   c0-0.3,0-0.6-0.1-0.9c0-0.3-0.1-0.5-0.3-0.7C134.8,14.6,134.4,14.4,133.8,14.4z"/>
	<path class="st0" d="M148.5,17.8c0,0.5-0.1,0.9-0.2,1.3s-0.4,0.8-0.7,1.1c-0.3,0.3-0.7,0.6-1.2,0.8c-0.5,0.2-1,0.3-1.7,0.3H140   v-9.9h2.8v3.1h2c0.7,0,1.3,0.1,1.8,0.3s0.9,0.5,1.1,0.8c0.3,0.3,0.5,0.7,0.6,1C148.4,17,148.5,17.4,148.5,17.8z M145.6,18   c0-0.2-0.1-0.4-0.2-0.7c-0.2-0.2-0.5-0.3-0.9-0.3h-1.7v1.9h1.7c0.4,0,0.7-0.1,0.9-0.3C145.5,18.4,145.6,18.2,145.6,18z M149.4,21.4   v-9.9h2.8v9.9H149.4z"/>
	<path class="st0" d="M159.3,13.9v7.5h-2.9v-7.5h-2.9v-2.4h8.7v2.4H159.3z"/>
	<path class="st0" d="M167.9,11.3c0.8,0,1.5,0.1,2.1,0.4c0.6,0.3,1.1,0.7,1.5,1.2c0.3,0.4,0.5,0.9,0.6,1.5c0.1,0.6,0.2,1.2,0.2,2   c0,0.7-0.1,1.2-0.2,1.8c-0.1,0.5-0.3,1-0.6,1.4c-0.4,0.7-1,1.2-1.7,1.5s-1.4,0.5-2.2,0.5c-0.8,0-1.5-0.1-2.1-0.4s-1.1-0.7-1.5-1.2   c-0.3-0.4-0.5-1-0.7-1.5c-0.1-0.6-0.2-1.3-0.2-2c0-0.5,0.1-1,0.1-1.5s0.2-0.9,0.4-1.3c0.3-0.7,0.9-1.3,1.6-1.7   S166.9,11.3,167.9,11.3z M167.8,13.9c-0.3,0-0.5,0.1-0.8,0.2s-0.4,0.4-0.5,0.6c-0.1,0.2-0.2,0.5-0.2,0.7s-0.1,0.6-0.1,0.9   c0,0.3,0,0.7,0.1,0.9s0.1,0.5,0.2,0.7c0.1,0.3,0.3,0.5,0.5,0.6c0.2,0.1,0.5,0.2,0.8,0.2c0.3,0,0.6-0.1,0.9-0.3s0.4-0.5,0.5-0.8   c0-0.1,0.1-0.3,0.1-0.6s0.1-0.5,0.1-0.8c0-0.4,0-0.7-0.1-1c-0.1-0.3-0.1-0.5-0.2-0.7c-0.1-0.3-0.3-0.5-0.5-0.6   C168.3,14,168,13.9,167.8,13.9z"/>
	<path class="st0" d="M182.8,18.3c0,0.5-0.1,0.9-0.3,1.2c-0.2,0.4-0.4,0.7-0.7,1c-0.3,0.3-0.7,0.5-1.1,0.6c-0.4,0.1-0.9,0.2-1.5,0.2   H174v-9.9h5c1.2,0,2.1,0.3,2.7,0.8c0.6,0.5,0.9,1.2,0.9,2c0,0.3-0.1,0.7-0.3,1.1c-0.2,0.4-0.5,0.7-1,0.9c0.2,0.1,0.5,0.2,0.6,0.4   c0.2,0.2,0.3,0.3,0.5,0.5s0.2,0.4,0.3,0.6C182.8,17.9,182.8,18.1,182.8,18.3z M179.7,14.6c0-0.2-0.1-0.4-0.2-0.5   c-0.2-0.1-0.4-0.2-0.8-0.2h-1.9v1.5h1.9c0.4,0,0.7-0.1,0.8-0.2C179.7,15,179.7,14.8,179.7,14.6z M179.9,18.1c0-0.2-0.1-0.4-0.2-0.5   c-0.1-0.2-0.4-0.2-0.8-0.2h-2v1.5h2c0.4,0,0.7-0.1,0.8-0.2C179.8,18.5,179.9,18.3,179.9,18.1z"/>
	<path class="st0" d="M188.6,11.3c0.8,0,1.5,0.1,2.1,0.4c0.6,0.3,1.1,0.7,1.5,1.2c0.3,0.4,0.5,0.9,0.6,1.5c0.1,0.6,0.2,1.2,0.2,2   c0,0.7-0.1,1.2-0.2,1.8c-0.1,0.5-0.3,1-0.6,1.4c-0.4,0.7-1,1.2-1.7,1.5s-1.4,0.5-2.2,0.5c-0.8,0-1.5-0.1-2.1-0.4s-1.1-0.7-1.5-1.2   c-0.3-0.4-0.5-1-0.7-1.5c-0.1-0.6-0.2-1.3-0.2-2c0-0.5,0.1-1,0.1-1.5s0.2-0.9,0.4-1.3c0.3-0.7,0.9-1.3,1.6-1.7   S187.6,11.3,188.6,11.3z M188.5,13.9c-0.3,0-0.5,0.1-0.8,0.2s-0.4,0.4-0.5,0.6c-0.1,0.2-0.2,0.5-0.2,0.7s-0.1,0.6-0.1,0.9   c0,0.3,0,0.7,0.1,0.9s0.1,0.5,0.2,0.7c0.1,0.3,0.3,0.5,0.5,0.6c0.2,0.1,0.5,0.2,0.8,0.2c0.3,0,0.6-0.1,0.9-0.3s0.4-0.5,0.5-0.8   c0-0.1,0.1-0.3,0.1-0.6s0.1-0.5,0.1-0.8c0-0.4,0-0.7-0.1-1c-0.1-0.3-0.1-0.5-0.2-0.7c-0.1-0.3-0.3-0.5-0.5-0.6   C189,14,188.7,13.9,188.5,13.9z"/>
	<path class="st0" d="M197.6,17.2l2.1-2.9l2-2.8h2.3v9.9h-2.8v-5.5h-0.1l-1.6,2.3l-2.3,3.2h-2.5v-9.9h2.8L197.6,17.2L197.6,17.2z    M199.3,10.1c-0.6,0-1.1-0.1-1.4-0.3c-0.4-0.2-0.7-0.5-0.9-0.8s-0.4-0.7-0.5-1s-0.2-0.7-0.2-1h2c0,0.1,0,0.3,0.1,0.4   s0.1,0.3,0.2,0.4c0.1,0.1,0.2,0.3,0.4,0.3c0.1,0.1,0.3,0.1,0.5,0.1s0.4,0,0.5-0.1c0.1-0.1,0.3-0.2,0.3-0.3c0.1-0.1,0.2-0.3,0.2-0.4   s0.1-0.3,0.1-0.4h2c0,0.3-0.1,0.6-0.2,1c-0.1,0.4-0.3,0.7-0.5,1s-0.5,0.6-0.9,0.8C200.4,10,199.9,10.1,199.3,10.1z"/>
	<path class="st0" d="M62.8,30.9v7.5h-2.9v-7.5H57v-2.4h8.7v2.4H62.8z"/>
	<path class="st0" d="M69.7,34.2c0.1,0.6,0.2,1.1,0.5,1.3c0.3,0.3,0.7,0.4,1.1,0.4c0.3,0,0.6-0.1,1-0.2s0.8-0.4,1.2-0.7l1.8,2   c-0.6,0.6-1.3,1-2,1.2c-0.7,0.2-1.4,0.3-2,0.3c-0.5,0-1.1-0.1-1.6-0.2s-1-0.4-1.5-0.8s-0.8-0.9-1-1.5c-0.3-0.6-0.4-1.5-0.4-2.5   c0-0.9,0.1-1.7,0.4-2.4c0.3-0.6,0.6-1.2,1-1.6c0.4-0.4,0.9-0.7,1.4-0.9c0.5-0.2,1.1-0.3,1.7-0.3c0.8,0,1.5,0.1,2,0.4s1,0.6,1.4,1   c0.4,0.4,0.6,1,0.8,1.6c0.2,0.6,0.3,1.3,0.3,2.1v0.7H69.7z M72.8,32.3c-0.1-0.5-0.2-0.8-0.5-1c-0.3-0.2-0.6-0.4-1-0.4   c-0.4,0-0.7,0.1-1,0.4c-0.3,0.3-0.5,0.6-0.5,1H72.8z"/>
	<path class="st0" d="M83.9,38.4l-1.8-2.8l-1.8,2.8h-3.4l3.8-5L77,28.5h3.4l1.7,2.7l1.7-2.7h3.4l-3.7,4.9l3.8,5H83.9z"/>
	<path class="st0" d="M94.7,38.4v-3.9h-3.3v3.9h-2.8v-9.9h2.8v3.8h3.3v-3.8h2.8v9.9H94.7z"/>
	<path class="st0" d="M102.5,34.2l2.1-2.9l2-2.8h2.3v9.9h-2.8v-5.5h-0.1l-1.6,2.3l-2.3,3.2h-2.5v-9.9h2.8L102.5,34.2L102.5,34.2z"/>
	<path class="st0" d="M117.8,33.3c0.4,0.1,0.8,0.4,1,0.7c0.2,0.3,0.4,0.7,0.5,1.2l1,3.2h-2.9l-0.7-2.3c-0.2-0.6-0.5-1.1-0.8-1.2   c-0.3-0.2-0.7-0.3-1-0.3H114v3.9h-2.9v-9.9h2.9v3.8h0.8c0.2,0,0.3,0,0.5,0c0.2,0,0.3-0.1,0.5-0.2c0.2-0.1,0.3-0.2,0.5-0.4   c0.1-0.2,0.3-0.5,0.3-0.8l0.7-2.3h2.8l-0.9,2.9c-0.1,0.5-0.3,0.8-0.5,1.2C118.5,32.8,118.2,33.1,117.8,33.3L117.8,33.3z"/>
	<path class="st0" d="M124.8,34.2l2.1-2.9l2-2.8h2.3v9.9h-2.8v-5.5h-0.1l-1.6,2.3l-2.3,3.2h-2.5v-9.9h2.8L124.8,34.2L124.8,34.2z"/>
</g>
<g>
	<g>
		<path class="st0" d="M13.2,24c0.8,0,1.5,0,2.3,0c0.2,4.2,2.1,7.3,5.9,9.1c3,1.4,6,1.3,9-0.2c-0.2-0.2-0.3-0.4-0.5-0.6    c-2.7-2.7-5.4-5.3-8-8.1c-1.4-1.5-3.1-2-5-2.1c-1.6,0-3.2,0-4.8,0c-2.6,0-4.8-0.8-6.4-2.9C4,17,2.4,14.7,0.8,12.5    c-0.1-0.1-0.2-0.3-0.3-0.4c-0.5-0.6-0.6-1.1,0-1.6c0.1-0.1,0.5-0.1,0.7,0c2.5,1.4,5,2.8,7.5,4.3c1,0.6,1.7,0.6,2.5-0.1    c2.2-1.9,3.6-4.1,3.8-7c0.1-0.7-0.2-1.2-0.9-1.5c-2.6-1.4-5.1-2.9-7.6-4.4C6.2,1.5,5.7,1.4,6.1,0.8c0.3-0.5,0.4-1,1.2-0.7    c0.9,0.3,1.8,0,2.7,0.1c2.3,0.3,4.7,0.6,7,1c3.3,0.6,4.8,2.8,5.3,6c0.3,1.6,0.6,3.2,1,4.8c0.6,2.3,1.7,4.3,3.4,6.1    c2.8,2.8,5.5,5.6,8.3,8.5c0.1,0,0.2-0.1,0.3-0.1c0.1-0.9,0.3-1.8,0.2-2.7c-0.3-4.8-3.5-8.5-8.3-9.6c-0.1,0-0.2,0-0.3,0    c-0.8,0.1-1.2-0.3-1.5-1.1c-0.1-0.5-0.3-1-0.5-1.4C31,11.2,37.1,15.4,38,22.2c1.1,8.1-5.3,14.2-12.4,14.2    C18.1,36.4,13,30.1,13.2,24z"/>
		<path class="st0" d="M10.8,23.9c0.3,9.1,7.7,15,15.4,14.7c8.1-0.4,14.1-7,14.1-14.8c0-7.7-6.6-15-15.6-14.5    c-0.2-0.8-0.3-1.6-0.5-2.4c-0.3-1-0.5-2.1-0.9-3.1c-0.2-0.7,0-0.9,0.5-1c1.2-0.1,2.4-0.1,3.6,0c0.2,0,0.6,0.5,0.7,0.8    c0.2,1,0.2,1.9,0.3,2.9c0,0.2,0.1,0.4,0.1,0.5c0.6,1.1,2.8,1.3,3.5,0.3c0.5-0.7,1-1.4,1.4-2.1c0.4-0.6,0.9-0.7,1.5-0.3    c0.8,0.5,1.6,1,2.4,1.4c0.7,0.3,0.7,0.9,0.4,1.4c-0.4,0.8-0.8,1.6-1.1,2.5c-0.1,0.4-0.1,1,0.1,1.3c0.2,0.4,0.7,0.8,1.1,1.1    c0.4,0.4,0.9,0.4,1.4,0.1c0.8-0.4,1.6-0.8,2.4-1.1c0.6-0.3,1.1-0.2,1.5,0.5c0.4,0.8,0.9,1.6,1.4,2.4c0.3,0.6,0.4,1.1-0.3,1.6    c-0.7,0.4-1.4,0.9-2.1,1.4c-0.5,0.4-0.8,0.8-0.6,1.5c0.1,0.5,0.1,1,0.4,1.4c0.2,0.4,0.7,0.7,1.1,0.8c0.9,0.2,1.9,0.3,2.9,0.3    c0.6,0,0.8,0.4,0.8,0.9c0,1,0,2,0,3c0,0.7-0.4,1-1,1.1c-0.8,0.1-1.7,0.1-2.5,0.2c-0.8,0-1.2,0.4-1.4,1.2c-0.3,1.5-0.1,2.2,1.1,3    c0.4,0.3,0.9,0.7,1.3,0.9c0.6,0.4,0.6,0.9,0.3,1.5c-0.5,0.8-1,1.7-1.5,2.5c-0.3,0.6-0.8,0.7-1.4,0.4c-0.8-0.4-1.6-0.8-2.5-1.1    c-0.3-0.1-0.9-0.2-1.1,0c-0.6,0.4-1.1,1-1.5,1.5c-0.2,0.2-0.1,0.7,0,1.1c0.3,0.8,0.7,1.6,1.1,2.4c0.3,0.7,0.2,1.2-0.5,1.5    c-0.8,0.4-1.6,0.9-2.4,1.4c-0.6,0.3-1.1,0.3-1.5-0.3c-0.4-0.7-1-1.4-1.4-2.1c-0.4-0.6-0.9-0.8-1.5-0.7c-0.4,0.1-1,0.1-1.3,0.4    c-0.4,0.2-0.7,0.7-0.8,1.1c-0.2,0.9-0.3,1.9-0.3,2.9c-0.1,0.6-0.4,0.8-1,0.8c-1,0-2.1,0-3.1,0c-0.6,0-0.9-0.4-1-1    c-0.1-0.9-0.1-1.7-0.2-2.6c0-0.7-0.3-1.2-1.1-1.3c-0.3-0.1-0.6-0.2-0.9-0.3c-0.7-0.1-1.3-0.1-1.7,0.6c-0.4,0.7-0.9,1.4-1.4,2.1    c-0.4,0.6-0.9,0.7-1.5,0.3c-0.8-0.5-1.7-1-2.5-1.4c-0.6-0.4-0.8-0.8-0.4-1.5c0.4-0.7,0.7-1.5,1.1-2.3c0.3-0.7,0.3-1.2-0.3-1.7    c-0.2-0.2-0.4-0.4-0.6-0.6c-0.6-0.6-1.4-0.7-2.1-0.2c-0.6,0.4-1.3,0.7-2,1.1c-0.6,0.3-1,0.1-1.4-0.5c-0.5-0.8-0.9-1.7-1.5-2.5    c-0.4-0.6-0.2-1.1,0.3-1.4c0.7-0.5,1.4-1,2.1-1.5c0.6-0.4,0.9-0.9,0.6-1.6c-0.2-0.4-0.1-0.8-0.3-1.1c-0.3-0.4-0.7-0.7-1.1-0.8    c-0.8-0.2-1.7-0.2-2.5-0.2c-0.7,0-1.2-0.3-1.1-1.1c0-1,0-2,0-2.9c0-0.3,0.3-0.7,0.5-0.9c0.1-0.1,0.6,0.2,0.8,0.4    c1.2,1.1,2.6,1.6,4.1,1.9C10.2,23.8,10.5,23.9,10.8,23.9z"/>
	</g>
</g>
</svg>