<?xml version="1.0" encoding="utf-8"?>
<!-- Generator: Adobe Illustrator 26.0.2, SVG Export Plug-In . SVG Version: 6.00 Build 0)  -->
<svg version="1.1" id="Слой_1" xmlns="http://www.w3.org/2000/svg" xmlns:xlink="http://www.w3.org/1999/xlink" x="0px" y="0px"
	 viewBox="0 0 204 45.1" style="enable-background:new 0 0 204 45.1;" xml:space="preserve">
<style type="text/css">
	.st0{fill:#010202;}
	.st1{fill:#F18624;}
	.st2{font-family:'Cambria-BoldItalic';}
	.st3{font-size:21px;}
	.st4{fill:none;}
	.st5{font-family:'Cambria-Italic';}
	.st6{font-size:14.9962px;}
</style>
<g>
	<g>
		<path class="st0" d="M12.1,19.4c0.7,0,1.4,0,2.1,0c0.2,3.4,1.9,5.9,5.4,7.3c2.8,1.1,5.5,1,8.3-0.2c-0.2-0.2-0.3-0.3-0.5-0.5
			c-2.5-2.2-5-4.3-7.4-6.5c-1.3-1.2-2.9-1.6-4.6-1.7c-1.5,0-2.9,0-4.4,0c-2.4,0-4.4-0.6-5.9-2.3c-1.6-1.8-3-3.6-4.5-5.4
			c0.1-0.1,0-0.2-0.1-0.3C0,9.3-0.1,8.9,0.5,8.5c0.1-0.1,0.5-0.1,0.6,0C3.4,9.6,5.7,10.7,8,12c0.9,0.5,1.6,0.5,2.3-0.1
			c2-1.5,3.3-3.3,3.5-5.7c0.1-0.6-0.2-1-0.8-1.2c-2.4-1.1-4.7-2.3-7-3.6C5.7,1.2,5.2,1.1,5.6,0.6C5.9,0.2,6-0.2,6.7,0.1
			c0.8,0.2,1.7,0,2.5,0.1c2.1,0.2,4.3,0.5,6.4,0.8c3,0.5,4.4,2.3,4.9,4.8c0.3,1.3,0.6,2.6,0.9,3.9c0.6,1.9,1.6,3.5,3.1,4.9
			c2.6,2.3,5.1,4.5,7.6,6.9c0.1,0,0.2-0.1,0.3-0.1c0.1-0.7,0.3-1.5,0.2-2.2c-0.3-3.9-3.2-6.9-7.6-7.8c-0.1,0-0.2,0-0.3,0
			c-0.7,0.1-1.1-0.2-1.4-0.9c-0.1-0.4-0.3-0.8-0.5-1.1c5.6-0.4,11.2,3,12,8.5c1,6.5-4.9,11.5-11.4,11.5C16.7,29.4,12,24.3,12.1,19.4
			z"/>
		<path class="st0" d="M9.9,19.3c0.3,7.3,7.1,12.1,14.2,11.9c7.4-0.3,13-5.7,13-12C37.1,13,31,7.1,22.7,7.5
			c-0.2-0.6-0.3-1.3-0.5-1.9c-0.3-0.8-0.5-1.7-0.8-2.5c-0.2-0.6,0-0.7,0.5-0.8c1.1-0.1,2.2-0.1,3.3,0c0.2,0,0.6,0.4,0.6,0.6
			C26,3.7,26,4.4,26.1,5.3c0,0.2,0.1,0.3,0.1,0.4c0.6,0.9,2.6,1,3.2,0.2c0.5-0.6,0.9-1.1,1.3-1.7c0.4-0.5,0.8-0.6,1.4-0.2
			c0.7,0.4,1.5,0.8,2.2,1.1c0.6,0.2,0.6,0.7,0.4,1.1c-0.4,0.6-0.7,1.3-1,2c-0.1,0.3-0.1,0.8,0.1,1c0.2,0.3,0.6,0.6,1,0.9
			c0.4,0.3,0.8,0.3,1.3,0.1c0.7-0.3,1.5-0.6,2.2-0.9c0.6-0.2,1-0.2,1.4,0.4c0.4,0.6,0.8,1.3,1.3,1.9c0.3,0.5,0.4,0.9-0.3,1.3
			c-0.6,0.3-1.3,0.7-1.9,1.1c-0.5,0.3-0.7,0.6-0.6,1.2c0.1,0.4,0.1,0.8,0.4,1.1c0.2,0.3,0.6,0.6,1,0.6c0.8,0.2,1.7,0.2,2.7,0.2
			c0.6,0,0.7,0.3,0.7,0.7c0,0.8,0,1.6,0,2.4c0,0.6-0.4,0.8-0.9,0.9c-0.7,0.1-1.6,0.1-2.3,0.2c-0.7,0-1.1,0.3-1.3,1
			c-0.3,1.2-0.1,1.8,1,2.4c0.4,0.2,0.8,0.6,1.2,0.7c0.6,0.3,0.6,0.7,0.3,1.2c-0.5,0.6-0.9,1.4-1.4,2c-0.3,0.5-0.7,0.6-1.3,0.3
			c-0.7-0.3-1.5-0.6-2.3-0.9c-0.3-0.1-0.8-0.2-1,0c-0.6,0.3-1,0.8-1.4,1.2c-0.2,0.2-0.1,0.6,0,0.9c0.3,0.6,0.6,1.3,1,1.9
			c0.3,0.6,0.2,1-0.5,1.2c-0.7,0.3-1.5,0.7-2.2,1.1c-0.6,0.2-1,0.2-1.4-0.2c-0.4-0.6-0.9-1.1-1.3-1.7c-0.4-0.5-0.8-0.6-1.4-0.6
			c-0.4,0.1-0.9,0.1-1.2,0.3c-0.4,0.2-0.6,0.6-0.7,0.9c-0.2,0.7-0.3,1.5-0.3,2.3c-0.1,0.5-0.4,0.6-0.9,0.6c-0.9,0-1.9,0-2.9,0
			c-0.6,0-0.8-0.3-0.9-0.8c-0.1-0.7-0.1-1.4-0.2-2.1c0-0.6-0.3-1-1-1c-0.3-0.1-0.6-0.2-0.8-0.2c-0.6-0.1-1.2-0.1-1.6,0.5
			c-0.4,0.6-0.8,1.1-1.3,1.7c-0.4,0.5-0.8,0.6-1.4,0.2c-0.7-0.4-1.6-0.8-2.3-1.1c-0.6-0.3-0.7-0.6-0.4-1.2c0.4-0.6,0.6-1.2,1-1.9
			c0.3-0.6,0.3-1-0.3-1.4c-0.2-0.2-0.4-0.3-0.6-0.5c-0.6-0.5-1.3-0.6-1.9-0.2c-0.6,0.3-1.2,0.6-1.8,0.9C7.7,29,7.4,28.9,7,28.4
			c-0.5-0.6-0.8-1.4-1.4-2c-0.4-0.5-0.2-0.9,0.3-1.1C6.7,25.4,7.4,25,8,24.5c0.6-0.3,0.8-0.7,0.6-1.3c-0.2-0.3-0.1-0.6-0.3-0.9
			c-0.3-0.3-0.6-0.6-1-0.6c-0.7-0.2-1.6-0.2-2.3-0.2c-0.6,0-1.1-0.2-1-0.9c0-0.8,0-1.6,0-2.3c0-0.2,0.3-0.6,0.5-0.7
			c0.1-0.1,0.6,0.2,0.7,0.3c1.1,0.9,2.4,1.3,3.8,1.5C9.4,19.2,9.7,19.3,9.9,19.3z"/>
	</g>
</g>
<text transform="matrix(1 0 0 1 42.949 15.0306)" class="st1 st2 st3">Инкомрем</text>
<polygon class="st4" points="119.1,1.4 59.7,1.4 38,16.1 97.4,16.1 "/>
<rect x="82.3" y="1.4" class="st4" width="63.9" height="6.6"/>
<text transform="matrix(1.3417 0 0 1 42.5361 28.3447)" class="st5 st6">Ремонт бытовой</text>
<text transform="matrix(1.3417 0 0 1 42.5361 41.9448)" class="st5 st6">техники</text>
<text transform="matrix(1 0 0 1 409 165)" class="st3" style="font-family:'MyriadPro-Regular';">УAловите свое</text>
</svg>
